<svg width="86" height="43" viewBox="0 0 86 43" fill="none" xmlns="http://www.w3.org/2000/svg">
<path d="M0.924805 0.331909V42.6129H43.2057C47.9792 29.0004 47.9927 13.9623 43.2057 0.331909H0.924805Z" fill="#D3DDE8"/>
<path d="M43.2053 0.331909C47.9912 13.9624 47.9777 29.0005 43.2053 42.6129H85.4863V0.331909H43.2053Z" fill="#004C89"/>
<path d="M50.9493 7.38892C50.5642 7.38892 50.2572 7.70178 50.2572 8.08568L50.2478 20.7921C50.2478 21.176 50.5607 21.4889 50.9446 21.4889H52.3522C52.7361 21.4889 53.049 21.176 53.049 20.7921L53.0584 8.08568C53.0584 7.70178 52.7455 7.38892 52.3616 7.38892H50.9493ZM56.674 7.38892C56.2901 7.38892 55.9772 7.70178 55.9772 8.08568V20.7921C55.9772 21.176 56.2889 21.4889 56.674 21.4889H58.0628C58.4478 21.4889 58.7596 21.176 58.7596 20.7921V15.557H64.3619L64.3666 20.7921C64.3666 21.176 64.6783 21.4889 65.0633 21.4889H66.4474C66.8313 21.4889 67.1442 21.176 67.1442 20.7921V8.08568C67.1442 7.70178 66.8313 7.38892 66.4474 7.38892H65.0539C64.67 7.38892 64.3619 7.70178 64.3619 8.08568V13.1984H58.7596L58.7643 8.08568C58.7643 7.70178 58.4525 7.38892 58.0675 7.38892H56.674H56.674ZM70.7598 7.38892C70.3759 7.38892 70.0677 7.70178 70.0677 8.08568L70.063 20.7921C70.063 21.176 70.3748 21.4889 70.7598 21.4889H72.0498C72.4337 21.4889 72.7465 21.176 72.7465 20.7921V17.4684L75.091 14.9403L78.7066 20.7921C78.9419 21.176 79.2714 21.4889 79.6576 21.4889H81.5925C81.9776 21.4889 82.0973 21.176 81.8609 20.7921L76.8706 12.9489L81.1876 8.08568C81.5322 7.70178 81.4998 7.38892 81.117 7.38892H79.2245C78.8394 7.38892 78.6468 7.34991 78.0287 7.96799L72.7559 13.6786L72.7418 8.08568C72.7418 7.70178 72.4301 7.38892 72.045 7.38892H70.7598Z" fill="white"/>
</svg>
