<svg width="176" height="33" viewBox="0 0 176 33" fill="none" xmlns="http://www.w3.org/2000/svg">
<path d="M9.38232 23.2519C9.38232 27.8079 7.86364 29.6519 4.06702 29.6519H0.487305V24.7706H1.02965C2.65682 24.7706 3.09075 24.3366 3.09075 22.4926V6.32971H9.38232V23.2519Z" fill="#020203"/>
<path d="M19.5793 5.78711C14.047 5.78711 10.7927 9.14986 10.7927 14.6821C10.7927 20.2144 14.1555 23.5771 19.5793 23.5771C25.1115 23.5771 28.3658 20.2144 28.3658 14.6821C28.3658 9.14986 25.1115 5.78711 19.5793 5.78711ZM19.5793 19.0212C17.7351 19.0212 16.9758 17.611 16.9758 14.6821C16.9758 11.7533 17.6267 10.3431 19.5793 10.3431C21.4233 10.3431 22.1826 11.6448 22.1826 14.6821C22.1826 17.611 21.4233 19.0212 19.5793 19.0212Z" fill="#020203"/>
<path d="M40.1894 5.89596C38.4538 5.89596 36.9351 6.65526 35.7419 8.06547V0.472168H29.6672V22.9267H35.1995V20.8656C36.5012 22.6012 38.2369 23.469 40.2979 23.469C44.203 23.469 47.0234 20.1063 47.0234 14.6825C47.0234 9.36719 44.203 5.89596 40.1894 5.89596ZM38.2369 18.6961C36.7182 18.6961 35.6334 17.2859 35.6334 14.8995C35.6334 12.296 36.5012 11.1028 38.2369 11.1028C39.9725 11.1028 40.7318 12.4045 40.7318 14.8995C40.7318 17.2859 39.7555 18.6961 38.2369 18.6961Z" fill="#020203"/>
<path d="M82.4954 15.767C82.4954 9.47543 79.1326 5.78723 73.6004 5.78723C68.0681 5.78723 64.5969 9.25846 64.5969 14.7907C64.5969 20.106 67.9596 23.5773 73.3835 23.5773C78.2648 23.5773 81.1937 21.6247 82.0615 18.045H76.0953C75.7699 18.9128 75.0106 19.4552 73.8173 19.4552C71.9733 19.4552 70.997 18.262 70.8885 16.0925H82.4954V15.767ZM70.78 12.8382C70.8885 10.8856 71.8648 9.69239 73.4919 9.69239C75.2275 9.69239 76.2038 10.7771 76.3123 12.8382H70.78Z" fill="#020203"/>
<path d="M84.1216 6.32952H89.7623V8.71599C91.1725 6.76338 93.0166 5.78711 95.1861 5.78711C97.1387 5.78711 98.5489 6.438 99.6336 7.73966C100.827 9.25834 100.935 11.3194 100.935 14.1398V22.8178H94.7522V14.2483C94.7522 11.9703 94.3183 10.8855 92.5827 10.8855C91.064 10.8855 90.3047 11.9703 90.3047 14.2483V22.8178H84.1216V6.32952Z" fill="#020203"/>
<path d="M113.084 18.3709H113.952V23.1438C112.651 23.2523 111.349 23.2523 110.047 23.2523C106.142 23.2523 104.732 22.059 104.732 18.4794V10.1267H102.562V6.33009H104.732V1.23169H110.915V6.33009H113.844V10.1267H110.915V16.7437C110.915 18.0455 111.566 18.3709 113.084 18.3709Z" fill="#020203"/>
<path d="M133.043 15.767C133.043 9.47543 129.681 5.78723 124.148 5.78723C118.616 5.78723 115.145 9.25846 115.145 14.7907C115.145 20.106 118.508 23.5773 123.931 23.5773C128.813 23.5773 131.742 21.6247 132.609 18.045H126.643C126.318 18.9128 125.558 19.4552 124.365 19.4552C122.521 19.4552 121.545 18.262 121.436 16.0925H133.043V15.767ZM121.328 12.8382C121.436 10.8856 122.413 9.69239 124.04 9.69239C125.775 9.69239 126.752 10.7771 126.86 12.8382H121.328Z" fill="#020203"/>
<path d="M134.563 6.32956H140.421V9.36687C141.289 6.87191 142.699 5.89563 145.302 5.89563H145.845V12.5127C145.411 12.4042 144.977 12.4042 144.543 12.4042C142.048 12.4042 140.855 13.5974 140.855 16.0924V22.9264H134.563V6.32956Z" fill="#020203"/>
<path d="M57.219 16.5265C57.1105 18.1537 56.2427 19.0215 54.8325 19.0215C52.9884 19.0215 52.2291 17.6113 52.2291 14.6825C52.2291 11.7536 52.9884 10.3434 54.8325 10.3434C56.2427 10.3434 57.002 11.1027 57.1105 12.6214H63.4021C63.2936 8.49936 60.0394 5.67896 54.941 5.67896C51.4698 5.67896 48.7579 7.08915 47.3477 9.47563C47.9985 10.9943 48.3239 12.7299 48.3239 14.6825C48.3239 16.635 47.9985 18.3707 47.3477 19.7808C48.8663 22.1673 51.4698 23.469 54.941 23.469C59.9309 23.469 63.1851 20.7571 63.4021 16.4181H57.219V16.5265Z" fill="#020203"/>
<path d="M149.315 19.1296C149.315 11.7533 155.281 5.78711 162.657 5.78711C170.034 5.78711 176 11.7533 176 19.1296C176 26.506 170.034 32.4722 162.657 32.4722C159.403 32.4722 156.366 31.2789 154.088 29.3264C156.257 25.7467 162.657 15.0076 162.657 15.0076L165.803 20.3229H162.657C161.139 20.3229 160.705 20.6483 160.054 21.6246C159.512 22.4924 158.21 24.6619 158.21 24.6619C158.101 24.8789 158.101 25.0958 158.535 25.0958H173.939C174.264 25.0958 174.373 24.8789 174.264 24.6619L162.983 6.22103C162.874 6.00407 162.549 6.00407 162.441 6.22103L150.942 25.4212C149.966 23.5771 149.315 21.4076 149.315 19.1296Z" fill="#E20E18"/>
</svg>
