<svg width="81" height="18" viewBox="0 0 81 18" fill="none" xmlns="http://www.w3.org/2000/svg">
<path d="M5.56427 0.864167C7.72427 0.864167 9.39627 1.31217 10.5803 2.20817C11.7803 3.10417 12.3803 4.44017 12.3803 6.21617C12.3803 8.07217 11.7883 9.47217 10.6043 10.4162C9.42027 11.3442 7.83627 11.8082 5.85227 11.8082H3.95627V17.4722H0.42827V0.864167H5.56427ZM5.56427 9.21617C6.58827 9.21617 7.37227 8.98417 7.91627 8.52017C8.46027 8.05617 8.73227 7.28817 8.73227 6.21617C8.73227 4.34417 7.66027 3.40817 5.51627 3.40817H3.95627V9.21617H5.56427ZM23.0841 13.9442C23.0841 14.4402 23.1561 14.8082 23.3001 15.0482C23.4441 15.2722 23.6841 15.4402 24.0201 15.5522L23.3001 17.8082C22.5481 17.7442 21.9321 17.5682 21.4521 17.2802C20.9881 16.9922 20.6281 16.5442 20.3721 15.9362C19.5401 17.2162 18.2681 17.8562 16.5561 17.8562C15.2921 17.8562 14.2841 17.4962 13.5321 16.7762C12.7961 16.0402 12.4281 15.0882 12.4281 13.9202C12.4281 12.5282 12.9321 11.4642 13.9401 10.7282C14.9481 9.99217 16.3961 9.62417 18.2841 9.62417H19.7481V9.00017C19.7481 8.21617 19.5721 7.67217 19.2201 7.36817C18.8681 7.06417 18.2841 6.91217 17.4681 6.91217C16.5721 6.91217 15.4521 7.13617 14.1081 7.58417L13.3401 5.30417C14.9241 4.68017 16.4921 4.36817 18.0441 4.36817C19.7721 4.36817 21.0441 4.74417 21.8601 5.49617C22.6761 6.23217 23.0841 7.33617 23.0841 8.80817V13.9442ZM17.4921 15.4082C18.4521 15.4082 19.2041 14.9362 19.7481 13.9922V11.5682H18.6201C16.7801 11.5682 15.8601 12.2562 15.8601 13.6322C15.8601 14.1922 15.9961 14.6322 16.2681 14.9522C16.5561 15.2562 16.9641 15.4082 17.4921 15.4082ZM33.0651 4.39217C33.4491 4.39217 33.8731 4.45617 34.3371 4.58417L33.7611 7.87217C33.3131 7.76017 32.9371 7.70417 32.6331 7.70417C31.8811 7.70417 31.2971 7.96817 30.8811 8.49617C30.4651 9.02417 30.1371 9.82417 29.8971 10.8962V17.4722H26.4891V4.75217H29.4411L29.7531 7.22417C30.0571 6.32817 30.4971 5.63217 31.0731 5.13617C31.6651 4.64017 32.3291 4.39217 33.0651 4.39217ZM43.6361 16.8722C43.1721 17.1922 42.6441 17.4322 42.0521 17.5922C41.4761 17.7682 40.9001 17.8562 40.3241 17.8562C39.0121 17.8402 38.0201 17.4642 37.3481 16.7282C36.6761 15.9922 36.3401 14.9122 36.3401 13.4882V7.15217H34.4441V4.75217H36.3401V1.96817L39.7481 1.56017V4.75217H42.6761L42.3401 7.15217H39.7481V13.4162C39.7481 14.0242 39.8521 14.4642 40.0601 14.7362C40.2681 15.0082 40.5881 15.1442 41.0201 15.1442C41.4521 15.1442 41.9321 15.0002 42.4601 14.7122L43.6361 16.8722ZM52.2493 4.36817C53.3693 4.36817 54.2413 4.71217 54.8653 5.40017C55.4893 6.07217 55.8013 7.00817 55.8013 8.20817V17.4722H52.3933V8.78417C52.3933 8.09617 52.2733 7.61617 52.0333 7.34417C51.8093 7.05617 51.4653 6.91217 51.0013 6.91217C50.5213 6.91217 50.0813 7.06417 49.6813 7.36817C49.2973 7.65617 48.9213 8.09617 48.5533 8.68817V17.4722H45.1453V4.75217H48.0973L48.3613 6.36017C48.8893 5.70417 49.4653 5.20817 50.0893 4.87217C50.7293 4.53617 51.4493 4.36817 52.2493 4.36817ZM69.7958 10.8242C69.7958 10.9842 69.7718 11.4242 69.7238 12.1442H61.7798C61.8918 13.2962 62.2038 14.1122 62.7158 14.5922C63.2278 15.0722 63.9238 15.3122 64.8038 15.3122C65.3478 15.3122 65.8598 15.2242 66.3398 15.0482C66.8198 14.8722 67.3398 14.5922 67.8998 14.2082L69.3158 16.1282C67.8918 17.2802 66.2838 17.8562 64.4918 17.8562C62.4918 17.8562 60.9558 17.2562 59.8838 16.0562C58.8118 14.8562 58.2758 13.2322 58.2758 11.1842C58.2758 9.88817 58.4998 8.72817 58.9478 7.70417C59.4118 6.66417 60.0758 5.84817 60.9398 5.25617C61.8198 4.66417 62.8598 4.36817 64.0598 4.36817C65.8678 4.36817 67.2758 4.93617 68.2838 6.07217C69.2918 7.20817 69.7958 8.79217 69.7958 10.8242ZM66.4118 9.86417C66.4118 7.75217 65.6518 6.69617 64.1318 6.69617C63.4278 6.69617 62.8758 6.96017 62.4758 7.48817C62.0918 8.00017 61.8598 8.84017 61.7798 10.0082H66.4118V9.86417ZM78.8385 4.39217C79.2225 4.39217 79.6465 4.45617 80.1105 4.58417L79.5345 7.87217C79.0865 7.76017 78.7105 7.70417 78.4065 7.70417C77.6545 7.70417 77.0705 7.96817 76.6545 8.49617C76.2385 9.02417 75.9105 9.82417 75.6705 10.8962V17.4722H72.2625V4.75217H75.2145L75.5265 7.22417C75.8305 6.32817 76.2705 5.63217 76.8465 5.13617C77.4385 4.64017 78.1025 4.39217 78.8385 4.39217Z" fill="#181818"/>
</svg>
