<?xml version="1.0" encoding="UTF-8" standalone="no"?><!DOCTYPE svg PUBLIC "-//W3C//DTD SVG 1.1//EN" "http://www.w3.org/Graphics/SVG/1.1/DTD/svg11.dtd"><svg width="100%" height="100%" viewBox="0 0 3508 2481" version="1.1" xmlns="http://www.w3.org/2000/svg" xmlns:xlink="http://www.w3.org/1999/xlink" xml:space="preserve" xmlns:serif="http://www.serif.com/" style="fill-rule:evenodd;clip-rule:evenodd;stroke-linejoin:round;stroke-miterlimit:2;"><clipPath id="_clip1"><rect id="IHK-logo.svg" x="584.529" y="655.462" width="2338.82" height="1169.39"/></clipPath><g clip-path="url(#_clip1)"><path d="M584.529,655.462l0,1169.4l1169.4,-0c132.025,-376.491 132.398,-792.412 -0,-1169.4l-1169.4,-0Z" style="fill:#d3dde8;fill-rule:nonzero;"/><path d="M1753.93,655.462c132.366,376.989 131.994,792.91 -0,1169.4l1169.4,-0l-0,-1169.4l-1169.4,-0Z" style="fill:#004c89;fill-rule:nonzero;"/><path d="M1968.12,850.644c-10.649,0 -19.14,8.653 -19.14,19.271l-0.261,351.432c0,10.618 8.653,19.271 19.271,19.271l38.932,0c10.618,0 19.271,-8.653 19.271,-19.271l0.261,-351.432c-0,-10.618 -8.653,-19.271 -19.271,-19.271l-39.063,0Zm158.334,0c-10.619,0 -19.271,8.653 -19.271,19.271l-0,351.432c-0,10.618 8.621,19.271 19.271,19.271l38.411,0c10.649,0 19.271,-8.653 19.271,-19.271l-0,-144.791l154.948,-0l0.13,144.791c-0,10.618 8.621,19.271 19.271,19.271l38.281,0c10.618,0 19.271,-8.653 19.271,-19.271l-0,-351.432c-0,-10.618 -8.653,-19.271 -19.271,-19.271l-38.542,0c-10.618,0 -19.14,8.653 -19.14,19.271l-0,141.406l-154.948,0l0.13,-141.406c-0,-10.618 -8.622,-19.271 -19.271,-19.271l-38.542,0l0.001,0Zm389.583,0c-10.618,0 -19.141,8.653 -19.141,19.271l-0.13,351.432c0,10.618 8.622,19.271 19.271,19.271l35.677,0c10.618,0 19.271,-8.653 19.271,-19.271l0,-91.927l64.844,-69.922l100,161.849c6.508,10.618 15.621,19.271 26.302,19.271l53.515,0c10.65,0 13.961,-8.653 7.422,-19.271l-138.021,-216.927l119.401,-134.505c9.529,-10.618 8.634,-19.271 -1.953,-19.271l-52.344,0c-10.649,0 -15.978,-1.079 -33.072,16.016l-145.834,157.943l-0.39,-154.688c-0,-10.618 -8.622,-19.271 -19.271,-19.271l-35.547,0Z" style="fill:#fff;fill-rule:nonzero;"/></g></svg>