<?xml version="1.0" encoding="UTF-8" standalone="no"?><!DOCTYPE svg PUBLIC "-//W3C//DTD SVG 1.1//EN" "http://www.w3.org/Graphics/SVG/1.1/DTD/svg11.dtd"><svg width="100%" height="100%" viewBox="0 0 3508 2481" version="1.1" xmlns="http://www.w3.org/2000/svg" xmlns:xlink="http://www.w3.org/1999/xlink" xml:space="preserve" xmlns:serif="http://www.serif.com/" style="fill-rule:evenodd;clip-rule:evenodd;stroke-linejoin:round;stroke-miterlimit:2;"><g id="g18"><path id="path1" d="M471.581,1350.4c-0,74.084 -24.695,104.07 -86.431,104.07l-58.209,0l-0,-79.375l8.819,-0c26.459,-0 33.515,-7.056 33.515,-37.042l-0,-262.821l102.306,-0l-0,275.168Z" style="fill:#020203;fill-rule:nonzero;"/><path id="path2" d="M637.388,1066.41c-89.959,0 -142.876,54.681 -142.876,144.64c-0,89.959 54.681,144.64 142.876,144.64c89.959,0 142.876,-54.681 142.876,-144.64c-0,-89.959 -52.917,-144.64 -142.876,-144.64m-0,215.196c-29.987,0 -42.334,-22.931 -42.334,-70.556c-0,-47.625 10.583,-70.556 42.334,-70.556c29.986,0 42.333,21.167 42.333,70.556c0,47.625 -12.347,70.556 -42.333,70.556" style="fill:#020203;fill-rule:nonzero;"/><path id="path3" d="M972.529,1068.18c-28.223,0 -52.917,12.347 -72.32,35.278l-0,-123.473l-98.779,0l0,365.128l89.959,-0l0,-33.515c21.167,28.223 49.39,42.334 82.904,42.334c63.5,0 109.362,-54.681 109.362,-142.876c-0,-86.431 -45.862,-142.876 -111.126,-142.876m-31.75,208.14c-24.695,0 -42.334,-22.93 -42.334,-61.736c-0,-42.334 14.111,-61.737 42.334,-61.737c28.222,0 40.569,21.167 40.569,61.737c0,38.806 -15.875,61.736 -40.569,61.736" style="fill:#020203;fill-rule:nonzero;"/><path id="path4" d="M1660.45,1228.69c0,-102.306 -54.681,-162.279 -144.64,-162.279c-89.959,0 -146.403,56.445 -146.403,146.404c-0,86.431 54.68,142.876 142.876,142.876c79.375,0 127,-31.75 141.112,-89.959l-97.015,0c-5.292,14.111 -17.639,22.931 -37.042,22.931c-29.986,-0 -45.861,-19.403 -47.625,-54.681l188.737,-0l0,-5.292Zm-190.501,-47.625c1.764,-31.75 17.639,-51.153 44.097,-51.153c28.223,-0 44.098,17.639 45.862,51.153l-89.959,-0Z" style="fill:#020203;fill-rule:nonzero;"/><path id="path5" d="M1686.91,1075.23l91.723,-0l-0,38.806c22.93,-31.751 52.917,-47.626 88.195,-47.626c31.75,0 54.681,10.584 72.32,31.75c19.403,24.695 21.166,58.209 21.166,104.071l0,141.112l-100.542,-0l0,-139.348c0,-37.042 -7.056,-54.681 -35.278,-54.681c-24.695,-0 -37.042,17.639 -37.042,54.681l0,139.348l-100.542,-0l-0,-268.113Z" style="fill:#020203;fill-rule:nonzero;"/><path id="path6" d="M2157.87,1271.03l14.112,-0l-0,77.611c-21.167,1.764 -42.334,1.764 -63.501,1.764c-63.5,0 -86.431,-19.403 -86.431,-77.611l-0,-135.821l-35.278,0l-0,-61.736l35.278,-0l-0,-82.904l100.542,0l0,82.904l47.626,-0l-0,61.736l-47.626,0l0,107.598c0,21.167 10.584,26.459 35.278,26.459" style="fill:#020203;fill-rule:nonzero;"/><path id="path7" d="M2482.43,1228.69c0,-102.306 -54.681,-162.279 -144.64,-162.279c-89.959,0 -146.404,56.445 -146.404,146.404c0,86.431 54.681,142.876 142.876,142.876c79.376,0 127.001,-31.75 141.113,-89.959l-97.015,0c-5.292,14.111 -17.639,22.931 -37.042,22.931c-29.986,-0 -45.861,-19.403 -47.625,-54.681l188.737,-0l0,-5.292Zm-190.501,-47.625c1.764,-31.75 17.639,-51.153 44.097,-51.153c28.223,-0 44.098,17.639 45.862,51.153l-89.959,-0Z" style="fill:#020203;fill-rule:nonzero;"/><path id="path8" d="M2507.12,1075.23l95.25,-0l0,49.389c14.112,-40.57 37.042,-56.445 79.376,-56.445l8.82,0l-0,107.598c-7.056,-1.764 -14.112,-1.764 -21.167,-1.764c-40.57,0 -59.973,19.403 -59.973,59.973l0,111.126l-102.306,-0l-0,-269.877Z" style="fill:#020203;fill-rule:nonzero;"/><path id="path9" d="M1249.46,1241.04c-1.764,26.459 -15.875,40.57 -38.806,40.57c-29.986,0 -42.333,-22.931 -42.333,-70.556c-0,-47.625 12.347,-70.556 42.333,-70.556c22.931,0 35.278,12.347 37.042,37.042l102.307,-0c-1.764,-67.028 -54.681,-112.89 -137.585,-112.89c-56.444,0 -100.542,22.931 -123.473,61.737c10.584,24.694 15.875,52.917 15.875,84.667c0,31.75 -5.291,59.973 -15.875,82.903c24.695,38.806 67.029,59.973 123.473,59.973c81.14,0 134.057,-44.097 137.585,-114.653l-100.543,-0l0,1.763Z" style="fill:#020203;fill-rule:nonzero;"/><path id="path11" d="M2747.01,1283.37c0,-119.945 97.015,-216.96 216.96,-216.96c119.945,0 216.96,97.015 216.96,216.96c0,119.945 -97.015,216.96 -216.96,216.96c-52.917,-0 -102.306,-19.403 -139.348,-51.153c35.278,-58.209 139.348,-232.835 139.348,-232.835l51.153,86.431l-51.153,-0c-24.694,-0 -31.75,5.292 -42.333,21.167c-8.82,14.111 -29.987,49.389 -29.987,49.389c-1.764,3.528 -1.764,7.056 5.292,7.056l250.474,-0c5.292,-0 7.056,-3.528 5.292,-7.056l-183.446,-299.863c-1.764,-3.528 -7.056,-3.528 -8.82,-0l-186.973,312.21c-15.875,-29.986 -26.459,-65.264 -26.459,-102.306" style="fill:#e20e18;fill-rule:nonzero;"/></g></svg>