<svg width="161" height="44" viewBox="0 0 161 44" fill="none" xmlns="http://www.w3.org/2000/svg">
<g clip-path="url(#clip0_4913_4847)">
<path d="M56.3483 25.1057C55.1556 25.1057 54.0867 24.8919 53.1528 24.4644C52.2077 24.0368 51.3413 23.4292 50.5312 22.6304L52.0839 20.4926C52.7816 21.2915 53.4904 21.8428 54.1992 22.1353C54.9081 22.4279 55.617 22.5742 56.3145 22.5742C57.1359 22.5742 57.7435 22.4167 58.1485 22.0903C58.5536 21.764 58.7561 21.3027 58.7561 20.6951C58.7561 20.2563 58.6436 19.9075 58.4186 19.6487C58.1935 19.3899 57.901 19.1874 57.5297 19.0412C57.1697 18.8949 56.7534 18.7599 56.2808 18.6698C55.8195 18.5686 55.3356 18.4673 54.8406 18.3548C54.3455 18.2423 53.8729 18.096 53.4004 17.916C52.9391 17.7359 52.5228 17.4885 52.1515 17.1734C51.7914 16.8584 51.4876 16.4533 51.2626 15.947C51.0375 15.4519 50.925 14.8218 50.925 14.0567C50.925 13.5504 51.0151 13.0329 51.2064 12.5378C51.3976 12.0314 51.6902 11.5814 52.1065 11.1876C52.5115 10.7938 53.0403 10.4675 53.6704 10.2199C54.3005 9.97246 55.0656 9.84863 55.9657 9.84863C56.9559 9.84863 57.8448 9.97246 58.6324 10.2312C59.4199 10.4787 60.2188 10.8613 61.0289 11.3789L59.9037 13.708C59.2286 13.2129 58.5761 12.864 57.946 12.6728C57.3159 12.4815 56.6858 12.3802 56.0445 12.3802C55.3469 12.3802 54.8293 12.5378 54.4918 12.864C54.1542 13.1904 53.9854 13.5841 53.9854 14.0567C53.9854 14.4167 54.0979 14.7093 54.323 14.9231C54.548 15.1481 54.8406 15.3282 55.2119 15.4744C55.5719 15.6207 55.9883 15.7445 56.4608 15.8345C56.9221 15.9358 57.4059 16.0483 57.901 16.172C58.396 16.3071 58.8686 16.4646 59.3412 16.6671C59.8025 16.8696 60.2188 17.1397 60.5901 17.4772C60.9501 17.8148 61.2427 18.2423 61.479 18.7374C61.704 19.2437 61.8165 19.8738 61.8165 20.6388C61.8165 21.2915 61.704 21.8878 61.479 22.4167C61.2539 22.9567 60.9052 23.4292 60.4439 23.8231C59.9825 24.2282 59.4087 24.5319 58.7224 24.757C58.0585 24.9932 57.2596 25.1057 56.3483 25.1057Z" fill="#0A090C"/>
<path d="M79.1309 25.1047V10.1177H82.1235V22.4044H89.2233V25.1047H79.1309Z" fill="#0A090C"/>
<path d="M91.7324 10.1631H101.646V12.7622H94.5004V16.1376H100.419V18.703H94.5004V22.506H101.915V25.1051H91.7324V10.1631Z" fill="#0A090C"/>
<path d="M109.094 25.1057C107.901 25.1057 106.833 24.8919 105.899 24.4644C104.954 24.0368 104.087 23.4292 103.277 22.6304L104.829 20.4926C105.527 21.2915 106.236 21.8428 106.945 22.1353C107.654 22.4279 108.362 22.5742 109.06 22.5742C109.882 22.5742 110.489 22.4167 110.894 22.0903C111.299 21.764 111.501 21.3027 111.501 20.6951C111.501 20.2563 111.389 19.9075 111.165 19.6487C110.939 19.3899 110.647 19.1874 110.275 19.0412C109.915 18.8949 109.499 18.7599 109.027 18.6698C108.566 18.5686 108.081 18.4673 107.586 18.3548C107.092 18.2423 106.619 18.096 106.146 17.916C105.685 17.7359 105.268 17.4885 104.897 17.1734C104.537 16.8584 104.234 16.4533 104.008 15.947C103.783 15.4519 103.671 14.8218 103.671 14.0567C103.671 13.5504 103.761 13.0329 103.952 12.5378C104.144 12.0314 104.436 11.5814 104.852 11.1876C105.257 10.7938 105.786 10.4675 106.416 10.2199C107.046 9.97246 107.811 9.84863 108.711 9.84863C109.702 9.84863 110.591 9.97246 111.378 10.2312C112.166 10.4787 112.964 10.8613 113.775 11.3789L112.65 13.708C111.974 13.2129 111.322 12.864 110.692 12.6728C110.062 12.4815 109.432 12.3802 108.79 12.3802C108.093 12.3802 107.575 12.5378 107.237 12.864C106.9 13.1904 106.731 13.5841 106.731 14.0567C106.731 14.4167 106.844 14.7093 107.069 14.9231C107.294 15.1481 107.586 15.3282 107.958 15.4744C108.318 15.6207 108.734 15.7445 109.207 15.8345C109.668 15.9358 110.152 16.0483 110.647 16.172C111.142 16.3071 111.615 16.4646 112.087 16.6671C112.548 16.8696 112.964 17.1397 113.336 17.4772C113.696 17.8148 113.988 18.2423 114.225 18.7374C114.449 19.2437 114.562 19.8738 114.562 20.6388C114.562 21.2915 114.449 21.8878 114.225 22.4167C113.999 22.9567 113.651 23.4292 113.19 23.8231C112.729 24.2282 112.154 24.5319 111.468 24.757C110.793 24.9932 109.994 25.1057 109.094 25.1057Z" fill="#0A090C"/>
<path d="M55.4374 27.8169H58.9591L64.1686 42.6689H60.9956L59.9718 39.2372H54.346L53.3221 42.6689H50.2617L55.4374 27.8169ZM55.2124 36.7281H58.9704L57.1476 30.7873H57.0351L55.2124 36.7281Z" fill="#0A090C"/>
<path d="M84.0819 27.8169H87.604L92.8133 42.6689H89.6401L88.6161 39.2372H82.9902L81.967 42.6689H78.9062L84.0819 27.8169ZM83.8566 36.7281H87.6151L85.7924 30.7873H85.6793L83.8566 36.7281Z" fill="#0A090C"/>
<path d="M68.4198 10.2407H71.9416L77.1511 25.0928H73.9781L72.9543 21.661H67.3285L66.3045 25.0928H63.2441L68.4198 10.2407ZM68.1949 19.1632H71.9528L70.1301 13.2224H70.0176L68.1949 19.1632Z" fill="#0A090C"/>
<path d="M69.3539 42.6688H66.3047V27.6255H69.3539V34.0501L74.6534 27.6143H78.0513L72.1668 34.5677L78.5464 42.6576H74.8559L69.3539 36.0754V42.6688Z" fill="#0A090C"/>
<path d="M95.2773 42.6687V27.6255H100.757C103.21 27.6255 105.01 28.2555 106.147 29.5044C107.283 30.7533 107.845 32.6437 107.845 35.1639C107.845 37.6843 107.283 39.5633 106.147 40.8122C105.01 42.0499 103.21 42.6687 100.757 42.6687H95.2773ZM98.3495 40.0472H100.78C102.186 40.0472 103.199 39.6758 103.806 38.922C104.414 38.1681 104.717 36.9192 104.717 35.1753C104.717 34.2976 104.639 33.555 104.504 32.9249C104.358 32.3061 104.121 31.7885 103.806 31.3834C103.491 30.9784 103.075 30.6971 102.58 30.5171C102.085 30.337 101.477 30.2471 100.78 30.2471H98.3495V40.0472Z" fill="#0A090C"/>
<path d="M111.369 27.6255H121.169V30.2471H114.102V33.645H119.953V36.2216H114.102V40.0472H121.427V42.6687H111.357V27.6255H111.369Z" fill="#0A090C"/>
<path d="M150.792 27.6255H160.592V30.2471H153.526V33.645H159.377V36.2216H153.526V40.0472H160.851V42.6687H150.781V27.6255H150.792Z" fill="#0A090C"/>
<path d="M124.238 42.6687V27.6255H127.963L131.958 39.102L136.019 27.6255H139.541V42.6687H136.975V32.5648C136.975 32.4523 136.818 32.4186 136.773 32.5312L133.116 42.6687H130.866L127.04 32.1485C126.995 32.036 126.837 32.0698 126.837 32.1823V42.6687H124.238Z" fill="#0A090C"/>
<path d="M146.406 27.6255H143.672V42.6687H146.406V27.6255Z" fill="#0A090C"/>
<path d="M42.6989 32.7109L37.4219 37.189L37.7257 38.0667L43.0026 33.5885L42.6989 32.7109Z" fill="#0A090C"/>
<path d="M43.9481 36.3229L43.5543 35.1978L38.2773 39.6759L38.6599 40.8123L43.9481 36.3229Z" fill="#0A090C"/>
<path d="M20.5351 10.1624L24.0681 5.52685C23.8656 5.25681 23.6405 4.99802 23.3817 4.75049L18.7461 8.7448C19.3874 9.14987 19.995 9.6224 20.5351 10.1624Z" fill="#0A090C"/>
<path d="M28.8262 35.04H30.1876L40.4715 26.3201L40.1677 25.4199L28.8262 35.04Z" fill="#0A090C"/>
<path d="M44.5104 37.9321L39.2109 42.4215L39.3121 42.7253H40.6061L44.9042 39.0798L44.5104 37.9321Z" fill="#0A090C"/>
<path d="M41.8562 30.3037L36.2754 35.0406H36.703L36.883 35.5807L42.1375 31.1139L41.8562 30.3037Z" fill="#0A090C"/>
<path d="M1.04611 12.526L14.0303 1.31942C13.6703 1.29692 13.299 1.28567 12.9389 1.27441L0.933594 11.6258C0.956097 11.9296 0.989852 12.2222 1.04611 12.526Z" fill="#0A090C"/>
<path d="M41.3043 28.6944L41.0343 27.918L32.6406 35.0402H33.8221L41.3043 28.6944Z" fill="#0A090C"/>
<path d="M7.69615 9.88179C8.10122 8.57658 9.20385 7.73274 10.6553 7.32768L17.1024 1.75817C16.7874 1.69066 16.4724 1.62315 16.146 1.56689L1.50781 14.2136C1.59783 14.4611 1.71034 14.7087 1.82286 14.9562L7.69615 9.88179Z" fill="#0A090C"/>
<path d="M21.3662 3.32275L16.3594 7.64335C16.6519 7.7446 16.9444 7.84587 17.2257 7.96964L22.1089 3.76157C21.8726 3.6153 21.625 3.46903 21.3662 3.32275Z" fill="#0A090C"/>
<path d="M26.3736 35.0411L32.6069 29.7529L25.8785 29.7641L30.1878 16.6448H30.5929L34.4859 28.1552L39.5942 23.8234L34.6884 9.70264H26.3848L23.2344 19.0752C20.7704 15.9698 15.7409 15.4747 12.0391 14.5295L6.42462 19.379C7.18973 19.7165 8.03359 19.964 8.94496 20.1103C16.551 22.0119 19.0151 22.4394 18.5425 26.3549C18.3963 27.5926 17.6537 28.6953 16.5285 29.2241C13.1531 30.8331 6.52589 29.2353 3.89303 24.7685L0 29.3028C2.9704 33.0383 6.88593 36.5826 17.5749 34.9398L15.0095 42.7259H21.7492L24.2358 35.0411H26.3736Z" fill="#0A090C"/>
<path d="M43.0488 42.725H46.1768L45.4679 40.6772L43.0488 42.725Z" fill="#0A090C"/>
<path d="M10.3172 1.44385C7.92062 1.78139 5.67032 2.63651 3.96008 4.16671C2.30611 5.64066 1.34973 7.51967 1.02344 9.45495L10.3172 1.44385Z" fill="#0A090C"/>
<path d="M9.43987 13.6187L4.27539 18.0742C4.48917 18.2431 4.71421 18.4118 4.95048 18.5693L10.2725 13.9787C9.96869 13.8662 9.69866 13.7424 9.43987 13.6187Z" fill="#0A090C"/>
<path d="M19.8035 2.59092C19.5223 2.4784 19.2409 2.37714 18.9371 2.27588L13.3789 7.06903C13.7389 7.09153 14.099 7.12528 14.4703 7.18154L19.8035 2.59092Z" fill="#0A090C"/>
<path d="M8.15776 12.6395C7.97772 12.4257 7.84274 12.2007 7.74147 11.9419L2.64453 16.3413C2.80205 16.5551 2.97083 16.7688 3.1396 16.9714L8.15776 12.6395Z" fill="#0A090C"/>
</g>
<defs>
<clipPath id="clip0_4913_4847">
<rect width="160.852" height="43" fill="white" transform="translate(0 0.5)"/>
</clipPath>
</defs>
</svg>
