<?xml version="1.0" encoding="UTF-8"?>
<svg version="1.1" viewBox="0 0 2048 948" width="300" height="139" xmlns="http://www.w3.org/2000/svg">
<path transform="translate(1006,335)" d="m0 0h34l2 1 1 4v130l2 5 5 2 12 1 46 1 15 1 2 7 2 1 1 6 3-1 4 6 3 1 5-1v-2h2l-1 7 1 2h-19l-2 6-1 1-8 1h-111l139 5 50 2v2h15l38 1 18 2 7 2-4 1-6-1-29-1h-59l14 4 1 3v6l9-3 14-2h54l18 2 15 4 12 5 10 7 10 9 7 10 7 15 2 7 1 8v54l-2 11-5 13-7 11-11 11-11 7-13 5-24 4-11 1h-57l-6-5-3-6 1-16 1-14v-13l-3-33-1-2h-13l-8 4-17 2-4 2v4l2 1v2l-8 1-1 3 5 14 11 31 6 18-1 4-10 3h-18l-5-5-5-12-6-18-3-5-7-2h-22l-31 1-5 2-6 15-6 16-4 5-3 1h-29l-4 1h-38l-7-2-7-6-9-11-24-28-27-27 1 3-1 22-1 47-3 2-14 1h-11l-4-3-1-5v-88l-1-28-1-10-2-2-2-5-2-13-2-11v-12l6-4-2-3-16-3v-3l4-1v-2h2l2-4 9-2 5-3v2h2l1-5 1-1 25-1h35l30 2-5-2-71-2-12-2-5 3-6 1h-28l-1-5 4-13 9-25 20-62 14-43 8-20 3-5 8-3h14l15 2 6 4 7 14 14 34 9 23 6 22 7 28 1 8 5 17 8 20h15l12 1-2-52zm-109 46-5 12-7 16-5 16-4 12v2l11 3h22l13-1-1-10-8-26-6-15-4-6-4-3zm-28 89-3 2-3 14-1 14 2-2 2-7 2 1-1 4 1 5 9 2 37 2h21l-1-2-2 1 1-4 5 5 7 1-1-8-5-21-4-6-11-1zm271 31m-211 44-13 10-2-1-8 7-5 6-2 1-1-2-2 2-1 8 2 2-2 2-1-3-3-1-1 20 5-1 9-11 9-9 14-18 6-10v-2zm20 1m-1 1-13 11-5 5-12 14-10 11-10 14v2l4 1 8-9 11-14 13-15 7-8 8-10zm50 0m-3 1-12 12 1 2 14-14zm66 2m-1 3m-1 2-1 5 2-2zm-77 7m-1 1m-1 1-7 7-7 8 1 2 7-7 7-8zm259 8-2 1 1 5 1 6-4 43-1 35v16l2 5 8 4 5 1h20l19-4 9-5 7-8 5-13 2-8 1-9v-14l-5-25-5-13-8-10-8-5-8-2zm-182-12-6 15-3 4-15 41-5 12 2-12 6-21 6-20-1-2-26 4-10 2-1 1-8 1-9 4v2l-6 1-10 4-9 2-16 4-7 5-2 4-1 5h-1v6l3 1 7 14-4-4-1-3-5-4-6-1 2 6 9 12 9 11 11 14 8 12 11 14 7 9 6 5h2v-2l6 1 2 8 6-2 8-16 11-35 7-26 21-63 3-10zm-92 21m-1 1m121 5v12l-6 5-2 6-2-3-6 18-4 16 4 4-2 2 3 2 14 1 22-2 1-3-7-25-7-20-7-13zm-188 17m179 0 1 3zm-140 7m-1 1m-1 1v3zm-2 3m-1 1-2 3 1 3 2-6z" fill="#FDFDFD"/>
<path transform="translate(402,328)" d="m0 0h47l24 1 6 2 8 16 9 24 15 44 15 40 11 31 2 9-18 20-5 7 8-6 14-12 3-1v5l-11 16 12-6 3-1 1-3 4 7-1 5-6 4-14 11-13 11-11 9-15 14-10 9-13 10-16 13-14 11-9 7-9 1-2-2 16-12 8-7 10-8 13-12 3-5 1-2-22 13-9 9-14 11-17 11-11 4-1-2 11-7 16-13 13-11 20-20 34-26-6 2-18 12-14 11-12 11-11 9-14 11-16 13-10 8-7 3-23 2-3 9-6 16-7 23-12 36-4 5-12 2h-46l-11-1-4-3 1-9 10-34 10-30 3-15-40 4h-26l-21-2-22-4-22-7-18-8-18-12-13-11-18-18-6-7 2-5 7-11 12-13 9-11 9-10 5-3 6 4 9 10 17 17 15 9 15 7 17 5 20 3h26l18-4 12-5 10-9 6-12 2-8v-20l-4-11-4-6-9-8-17-9-27-9-64-16-14-5 1-4 13-11 11-9 13-11 14-11 9-9 11 1 27 6 33 9 20 7 14 6 23 13 5 3h3l7-16 16-50 10-30 4-6 3-2zm27 81-4 8-4 9-4 11-3 10-3 4-1 13-4 6-2 4v12l-4 2-2 3-1 12-6 12-1 9-6 10v7l-6 12-1 5 4 4 7 2 11 1h12l35-2 10-4 24-12v-3l-5-10-8-24-13-41-10-31-9-25-3-4z" fill="#030303"/>
<path transform="translate(887,539)" d="m0 0h6v4h-2l1 13-1 15-1 30 3 1 1 13 10-13 13-16 9-11 11-12 7-9 5-7h2l2-4 4-3h39l-6 7-10 11-8 10-12 14-10 11-10 13-2 5-1 6h-1l-1 5 4 1 6 12v2l-3-1-2-3v-3l-4-2-7-3 5 9 11 14 11 13 13 19 11 14 7 9 7 5v-2l6 1 2 5v3l5-2 8-16 11-35 7-26 13-39h2l3-11 12-35 3-9 38-1 6-1 2 5 5 17 19 56 8 24 3 10 4 11 11 31 6 18-1 4-10 3h-18l-5-5-5-12-6-18-3-5-7-2h-22l-31 1-5 2-6 15-6 16-4 5-3 1h-29l-4 1h-38l-7-2-7-6-9-11-24-28-27-27 1 3-1 22-1 47-3 2-14 1h-11l-4-3-1-5v-171zm198 48v12l-6 5-2 6-2-3-6 18-4 16 4 4-2 2 3 2 14 1 22-2 1-3-7-25-7-20-7-13zm-9 17 1 3zm-140 7m-1 1m-1 1v3zm-2 3m-1 1-2 3 1 3 2-6z" fill="#030303"/>
<path transform="translate(1541,542)" d="m0 0h41l9 2 7 33 9 32 8 20 13 29 4 9 1 5h2l1-5 7-15 18-49 9-24 9-31 2-4 2-1 9-1h25l6 2 1 5 1 14v22l-1 31v23l3 18 6 16 3 12 3 4h2l2 3 2-3h2l5 10 2 1 3-10 1-5h2l4 15v2h2l2 9v5l-4-1v2l-10-1-1-2 5-1h-6l-1 2h-9l-16-3-1 5-4 3h-12l-10-2-2-3-1-5-1-91-1-20-3 3-6 18-13 31-11 27-10 28-6 10-6 4-11-1-8-5-4-6-9-29-10-26-13-34-6-15v-2h-2l-3 70-1 42-3 3-9 2h-9l-5-3-2-8-1-11v-107l-1-7-2-40z" fill="#080808"/>
<path transform="translate(1199,540)" d="m0 0h71l19 2 15 4 14 7 8 5 8 9 8 15 4 12 1 8v54l-2 11-5 13-7 11-11 11-11 7-13 5-24 4-11 1h-57l-6-5-3-6 1-16 1-14zm40 32-2 1 1 5 1 6-4 43-1 35v16l2 5 8 4 5 1h20l19-4 9-5 7-8 5-13 2-8 1-9v-14l-5-25-5-13-8-10-8-5-8-2z" fill="#050505"/>
<path transform="translate(754,526)" d="m0 0 5 1 1-1h11l11 2 10 2 5 4 3 1v2h4l2 6 7 8v2h-2l2 8-1 15-1 1-1 11h-3l-1 3-4-4-2-6-3-1-6-9 6 13 2 10h-10l-3-3-2-5 7 19 10 25 9 29 7 27 8 24v6l-3 2-5 1h-13l-7-3-5-8-4-10-5-15-5-5-6-1h-16l-34 1-6 2-3 4-7 16-1 13-5 3-12 3h-16l-3-7 7-23 12-35 7-18 27-81 4-11 4-4 8-1v-3h2l1-4 9-4h4zm29 32 3 5 2-1 7 11 1-2-7-11-2-2zm6 10 1 2zm7 5 1 2zm1 2m-16 1 1 2zm1 3 1 3zm11 5m1 1m-50 1-11 27-8 24v8l3 3 5 2h19l16-4 1-3-4-17-7-21-6-12-6-7z" fill="#050505"/>
<path transform="translate(1108,540)" d="m0 0 3 1 4 15 21 62 8 24 3 10 4 11 11 31 6 18-1 4-10 3h-18l-5-5-5-12-6-18-3-5-7-2h-22l-31 1-5 2-6 15-6 16-4 5-3 1h-29l-4 1h-12v-1l6-1-2-5-1-5 6 1 2 5v3l5-2 8-16 11-35 7-26 13-39h2l3-11 12-35 3-9 38-1zm-23 47v12l-6 5-2 6-2-3-6 18-4 16 4 4-2 2 3 2 14 1 22-2 1-3-7-25-7-20-7-13zm-9 17 1 3z" fill="#050505"/>
<path transform="translate(1196,333)" d="m0 0 69 1 7 1 1 1v25l-1 1-16 1-64 1-1 40h35l25 1 9 3 1 1v15l-3 8-4 3-63 1v12l-1 22-1 9h48l33 1 5 2 1 5v20l-2 5-13 1h-88l-11-1-4-3-1-8 1-140 1-26 8-1z" fill="#0C0C0C"/>
<path transform="translate(889,336)" d="m0 0h14l15 2 6 4 7 14 14 34 9 23 6 22 7 28 1 8 5 17 8 20 3 3h-37l-2-6-7-28-3-5-11-1h-55l-2 1-3 14-2 11-4 14-6 1h-28l-1-5 4-13 9-25 20-62 14-43 8-20 3-5zm8 45-5 12-7 16-5 16-4 12v2l11 3h22l13-1-1-10-8-26-6-15-4-6-4-3z" fill="#060606"/>
<path transform="translate(717,331)" d="m0 0h31l15 3 16 7 9 7 3 5-1 5-3 3h-2l-2 5-5 6-6-2-15-6-9-2h-21l-8 3-4 5-2 6v10l5 5 6 4 17 5 21 5 14 7 13 10 12 13 2 4-2 27-3 10-6 12-7 9-9 7-8 4-11 3-8 1h-10l-18-2-20-7-15-8-13-11-2-4 9-12 5-9h3l9 9 16 8 12 3h16l14-4 8-7 2-5v-10l-4-7-8-6-14-4-29-8-11-5-9-6-8-8-8-16-1-3v-16l6-16 7-11 8-7 12-6z" fill="#090909"/>
<path transform="translate(1423,540)" d="m0 0h43l32 1 5 1 1 2v24l-6 3-8 1h-69l1 38 40 1 23 1 4 1 2 7 1 20-70 1v25l1 20 69 2 15 2 1 1v18l-2 5-5 4h-105l-3-3-1-2-1-68-1-28-1-53v-21l3-1z" fill="#0E0E0E"/>
<path transform="translate(1898,540)" d="m0 0h46l20 1 7 2 1 2v21l-3 4-8 1-74 1v39l38 1 25 1 7 2 1 5v19l-1 1-69 1 1 35 1 10 20 1 50 1 13 2 4 5 1 9-3 9-5 4-3 1-40 1h-65l-2-1-2-10v-124l-1-28v-13l1-1 7-1z" fill="#080808"/>
<path transform="translate(1346,331)" d="m0 0h23l17 3 12 4 13 7 5 6-2 5-4 6-4 10-21-8-13-3h-19l-8 3-7 6-3 6v7l4 6 9 6 42 14 17 9 9 7 7 8 5 12 1 5v8l-4 16-6 12-9 10-11 7-13 5-15 3h-16l-16-4-20-8-23-13-2-4 6-9 10-11 4-1 15 10 13 5 15 3h9l13-3 6-4 3-4 1-3v-14l-4-8-10-5-28-7-15-4-10-4-9-7-7-8-5-11-2-8v-18l3-10 5-9 7-8 11-7 10-4z" fill="#070707"/>
<path transform="translate(1006,335)" d="m0 0h34l2 1 1 4v130l2 5 5 2 12 1 46 1 15 1 2 7 2 1 1 6 3-1 4 6 3 1 5-1v-2h2l-1 7 1 2h-19l-1 5h-117l-2-54z" fill="#060606"/>
<path transform="translate(1773,543)" d="m0 0h34v30l-1 14v25l1 101-5 5-10 2h-11l-6-2-2-3-1-8v-163z" fill="#0F0F0F"/>
<path transform="translate(539,503)" d="m0 0h2v5l-11 16 12-6 3-1 1-3 4 7-1 5-6 4-14 11-13 11-11 9-15 14-10 9-13 10-16 13-14 11-9 7-9 1-2-2 16-12 8-7 10-8 13-12 3-5 1-2-22 13-9 9-14 11-17 11-11 4-1-2 11-7 16-13 13-11 20-20 34-26-6 2-27 18-77-1-1-4 2-2 9 3 11 1h12l35-2 10-4 24-12 5-5 12-11 11-9 11-10 9-7 2 1-9 10-5 7 8-6 14-12z" fill="#FEFEFE"/>
<path transform="translate(754,526)" d="m0 0 5 1 1-1h11l11 2 10 2 5 4 3 1v2h4l2 6 7 8v2h-2l2 8-1 15-1 1-1 11h-3l-1 3-4-4-2-6-3-1-6-9 6 13 2 10h-10l-3-3-4-11-1-2 1-2h-2l-11-33-2-2-7 1-27 1-3-3 8-1v-3h2l1-4 9-4h4zm29 32 3 5 2-1 7 11 1-2-7-11-2-2zm6 10 1 2zm7 5 1 2z" fill="#FEFEFE"/>
<path transform="translate(181,233)" d="m0 0h2l-2 4-14 14-8 7-11 10-8 7-11 9-12 10-19 14-12 9h-2l2-6 8-19 7-11 8-10 11-11 16-11 15-8 14-5z" fill="#050505"/>
<path transform="translate(1723,639)" d="m0 0h1l3 18 6 16 3 12 3 4h2l2 3 2-3h2l5 10 2 1 3-10 1-5h2l4 15v2h2l2 9v5l-4-1v2l-10-1-1-2 5-1h-6l-1 2h-9l-16-3-1 5-2 1z" fill="#FEFEFE"/>
<path transform="translate(545,514)" d="m0 0 3 3 2 4-1 5-6 4-14 11-13 11-11 9-15 14-10 9-13 10-16 13-14 11-9 7-9 1-2-2 16-12 8-7 10-8 13-12 10-9 8-7 17-14 14-12 8-7 13-11 8-7 3-1z" fill="#0C0C0C"/>
<path transform="translate(347,272)" d="m0 0 5 2 1 3-4 7-10 14-12 17-7 8-7 5-7-2-8-6-3-2 1-4 10-9 15-13 12-11 11-8z" fill="#080808"/>
<path transform="translate(264,232)" d="m0 0h4l-2 4-14 13-8 7-8 8-11 9-11 10-11 9-10 8-11 8-13 12-17 16-11 9-15 13-17 13-14 12-5 4h-2l1-5 12-11 14-11 14-12 8-7 10-9 11-9 13-12 11-9 17-16 10-9 11-9 14-11 13-11 12-11z" fill="#181818"/>
<path transform="translate(590,631)" d="m0 0h3l-1 9-13 12-11 9-15 14-14 11-11 7-4-3-1-6 10-10 17-13 11-9 13-11 14-9z" fill="#0D0D0D"/>
<path transform="translate(600,663)" d="m0 0h3l1 8-10 10-11 9-14 12-13 12-5 4-3 1h-9l-2-1 1-4 14-12 12-11 8-7 15-12z" fill="#0B0B0B"/>
<path transform="translate(226,229)" d="m0 0v3l-13 13-8 7-15 14-11 9-12 11-11 9-30 26-11 9-16 13-17 12-2-1 7-8 12-9 11-9 28-24 10-9 8-7 12-11 8-7 14-12 14-11 15-14z" fill="#141414"/>
<path transform="translate(557,548)" d="m0 0h3l-1 5-10 9-13 10-11 9-10 9-17 13-11 9-10 9-8 6h-6v-3l16-13 14-12 11-9 15-13 11-9 15-12z" fill="#121212"/>
<path transform="translate(866,491)" d="m0 0 3 1-1 4 2 5 7 1 58 3-3-1v-8l6 8 8 1 2 7-73-2-12-2-2 2-3-1 3-12 2 1z" fill="#FEFEFE"/>
<path transform="translate(577,601)" d="m0 0h2v7l-2 5-11 9-32 26-14 11h-4l-1-5 15-13 14-11 14-12 11-10z" fill="#101010"/>
<path transform="translate(570,573)" d="m0 0 4 2v4l-17 13-11 9-12 10-16 12-11 8h-3l1-5 7-7 13-10 14-12 13-11 13-10z" fill="#0E0E0E"/>
<path transform="translate(297,240)" d="m0 0 4 1-2 4-12 11-8 7-11 10-11 9-16 15-6 1-2-3 14-14 11-9 13-11 12-11 9-8z" fill="#191919"/>
<path transform="translate(548,538)" d="m0 0v3l-11 11-20 16-11 11-14 11-16 13-14 12-9 6-2-1 12-11 16-15 11-9 14-12 11-10 14-11 11-8z" fill="#FEFEFE"/>
<path transform="translate(327,253)" d="m0 0 2 1-1 4-7 7-10 8-15 13-10 8-11 9-4 2-4-1 1-4 14-12 14-11 15-13 13-10z" fill="#131313"/>
<path transform="translate(1006,335)" d="m0 0h3v141l-1 9h-1l-1-28z" fill="#FEFEFE"/>
<path transform="translate(184,375)" d="m0 0 3 1-2 4-8 7-7 7-8 7-14 12-12 11-7 5-5-1 2-4 10-8 13-12 11-9 14-12z" fill="#1F1F1F"/>
<path transform="translate(164,356)" d="m0 0 3 1-7 8-12 11-11 9-14 12-12 10-5 2-2-1 2-4 13-11 11-9 14-12 10-8 9-7z" fill="#252525"/>
<path transform="translate(1085,577)" d="m0 0 4 4 6 19 12 37 3 10-1 3h-8l-3-2 8-1-4-17-10-30-6-11v10l-6 5-3 7-1-4 1-6 6-18z" fill="#FEFEFE"/>
<path transform="translate(607,699)" d="m0 0 2 1 2 8 3 7-3 2-29 3 5-5 8-6 11-9z" fill="#1B1B1B"/>
<path transform="translate(562,567)" d="m0 0 2 1-15 12-11 8-12 11-17 13-8 7-2-1 11-12 10-9 10-8 22-18 5-1z" fill="#FEFEFE"/>
<path transform="translate(1886,568)" d="m0 0 83 1v1l-8 1-74 1v35h-1l-1-23v-15z" fill="#FEFEFE"/>
<path transform="translate(1190,479)" d="m0 0h47l33 1 3 2h-82z" fill="#FEFEFE"/>
<path transform="translate(1245,569)" d="m0 0h25v1l-22 1-11 2 3 7-3 37-1 10h-1v-50l2-7z" fill="#FEFEFE"/>
<path transform="translate(1898,540)" d="m0 0h46l20 1 5 1v1h-42l-62-1v-1z" fill="#FEFEFE"/>
<path transform="translate(1573,593)" d="m0 0h2l6 12 1 6-2-2-2-7h-2l-3 70h-1v-36z" fill="#FEFEFE"/>
<path transform="translate(253,716)" d="m0 0 69 2v1l-9 1h-46l-11-1z" fill="#FEFEFE"/>
<path transform="translate(575,592)" d="m0 0v3l-14 11-13 11-7 5-5 3-2-1 5-4 4-5 9-8 6-5 3-1 1-2 5-1z" fill="#FEFEFE"/>
<path transform="translate(937,373)" d="m0 0 2 2 14 35 7 25-1 4-16-46-6-17z" fill="#FEFEFE"/>
<path transform="translate(1129,493)" d="m0 0h2l4 6 3 1 5-1v-2h2l-1 7 1 2h-16l-3-2 2-10z" fill="#FEFEFE"/>
<path transform="translate(1189,362)" d="m0 0h67v1l-64 1-1 39h-1l-1-31-1-9z" fill="#FEFEFE"/>
<path transform="translate(261,475)" d="m0 0 5 1 10 6 7 6 7 11 2 6v17l-1 5h-1l-1-20-4-11-4-6-9-8-11-6z" fill="#FEFEFE"/>
<path transform="translate(579,626)" d="m0 0 2 2-13 10-14 9h-3l8-9 14-11 2 1v1zm-8 5m-2 1-1 2 3-1z" fill="#FEFEFE"/>
<path transform="translate(937,611)" d="m0 0 1 3-2 3-1 5 4 1 6 12v2l-3-1-2-3v-3l-14-7 3-3 1 1 6-9z" fill="#FEFEFE"/>
<path transform="translate(1314,344)" d="m0 0 2 1-8 10-6 12-1 5v9l2 15 5 11-1 2-6-12-2-8v-18l3-10 5-9z" fill="#FEFEFE"/>
<path transform="translate(781,498)" d="m0 0 2 1-10 7-11 4-13 2h-10v-1l24-5 15-6z" fill="#FEFEFE"/>
<path transform="translate(737,372)" d="m0 0 12 2 6 3v4l-7-1-13-5v-2z" fill="#FEFEFE"/>
<path transform="translate(994,706)" d="m0 0 6 1 2 5v3l4-1 1 3-4 1h-12v-1l6-1-2-5z" fill="#FEFEFE"/>
<path transform="translate(1641,657)" d="m0 0 1 3-6 21-2-1-4-12 1-2 2 3v3h2l1-5z" fill="#FEFEFE"/>
<path transform="translate(790,597)" d="m0 0 6 2 4 6 3 9-1 2-7-9-5-7z" fill="#FEFEFE"/>
<path transform="translate(1295,580)" d="m0 0 4 2 6 9 4 12 2 11v7h-1l-5-22-5-11z" fill="#FEFEFE"/>
<path transform="translate(747,572)" d="m0 0 2 2 3 16-1 3-5-6-2-2z" fill="#FEFEFE"/>
<path transform="translate(900,371)" d="m0 0h2l4 13-1 4-4-5-3-2 1-8z" fill="#FEFEFE"/>
<path transform="translate(891,637)" d="m0 0 3 3 6 9 12 13v3l-18-18-2-3z" fill="#FEFEFE"/>
<path transform="translate(1199,678)" d="m0 0h1v34l-3-4 1-16z" fill="#FEFEFE"/>
<path transform="translate(1388,446)" d="m0 0 3 3 1 4v14l-7 8-2-1 5-6 1-3v-14z" fill="#FEFEFE"/>
<path transform="translate(276,628)" d="m0 0h4l-3 10-3 9-1-4z" fill="#FEFEFE"/>
<path transform="translate(570,573)" d="m0 0 4 2v4l-5 4-2-1 1-5-1-2z" fill="#FEFEFE"/>
<path transform="translate(796,431)" d="m0 0 5 4 2 4-1 10h-1l-4-14z" fill="#FEFEFE"/>
<path transform="translate(1235,682)" d="m0 0 9 4 5 1v1h-14z" fill="#FEFEFE"/>
<path transform="translate(1630,650)" d="m0 0 5 5 2 5v5l-3-3-4-10z" fill="#FEFEFE"/>
<path transform="translate(92,535)" d="m0 0v3l-9 10-5 5 2-4 8-10z" fill="#FEFEFE"/>
<path transform="translate(1541,542)" d="m0 0h6l-4 1-1 20h-1l-1-20z" fill="#FEFEFE"/>
<path transform="translate(590,631)" d="m0 0h3l-1 9-2 1-2-9z" fill="#FEFEFE"/>
<path transform="translate(339,431)" d="m0 0 5 2h4l-1 5-2 2z" fill="#FEFEFE"/>
<path transform="translate(600,663)" d="m0 0h3l1 8-3 2-2-9z" fill="#FEFEFE"/>
<path transform="translate(922,438)" d="m0 0 5 1v2l-4 1h-14v-1h13z" fill="#FEFEFE"/>
<path transform="translate(768,645)" d="m0 0 2 4-2 1-10-1 4-2z" fill="#FEFEFE"/>
<path transform="translate(1047,585)" d="m0 0 1 4-5 14-1-3z" fill="#FEFEFE"/>
<path transform="translate(786,410)" d="m0 0 5 2 5 4v2l-4-2-6-5z" fill="#FEFEFE"/>
<path transform="translate(772,406)" d="m0 0 9 1-2 3-6-1z" fill="#FEFEFE"/>
<path transform="translate(779,410)" d="m0 0 4 1 2 4-5-1-2-3z" fill="#FEFEFE"/>
<path transform="translate(1428,582)" d="m0 0 2 2v14h-1z" fill="#FEFEFE"/>
<path transform="translate(928,485)" d="m0 0 3 1 1 10-2-4z" fill="#FEFEFE"/>
<path transform="translate(797,419)" d="m0 0 5 5 1 5-4-5z" fill="#FEFEFE"/>
<path transform="translate(1136,512)" d="m0 0 12 1v1h-12z" fill="#FEFEFE"/>
<path transform="translate(721,374)" d="m0 0 1 2-1 4h-3l1-4z" fill="#FEFEFE"/>
<path transform="translate(906,565)" d="m0 0v3l-4 3 2-4z" fill="#FEFEFE"/>
<path transform="translate(714,552)" d="m0 0 1 3-3 3 1-5z" fill="#FEFEFE"/>
<path transform="translate(811,499)" d="m0 0 5 4-5-1z" fill="#FEFEFE"/>
<path transform="translate(1280,484)" d="m0 0 5 1v3l-1-2z" fill="#FEFEFE"/>
<path transform="translate(819,498)" d="m0 0v3h-3z" fill="#FEFEFE"/>
<path transform="translate(1130,488)" d="m0 0 2 1-1 3-2-2z" fill="#FEFEFE"/>
<path transform="translate(869,477)" d="m0 0h3v2l-4-1z" fill="#FEFEFE"/>
<path transform="translate(1430,598)" d="m0 0h1v6h-1z" fill="#FEFEFE"/>
<path transform="translate(799,584)" d="m0 0 3 4-3-1z" fill="#FEFEFE"/>
<path transform="translate(802,620)" d="m0 0 2 4-2-1z" fill="#FEFEFE"/>
<path transform="translate(1130,510)" d="m0 0h3v2l-3-1z" fill="#FEFEFE"/>
<path transform="translate(594,634)" d="m0 0 1 4z" fill="#FEFEFE"/>
<path transform="translate(1534,582)" d="m0 0 2 1-1 2z" fill="#FEFEFE"/>
<path transform="translate(556,568)" d="m0 0 2 1h-3z" fill="#FEFEFE"/>
<path transform="translate(937,498)" d="m0 0 2 2-2 1z" fill="#FEFEFE"/>
<path transform="translate(870,496)" d="m0 0 1 3-2-1z" fill="#FEFEFE"/>
<path transform="translate(813,496)" d="m0 0 3 1h-3z" fill="#FEFEFE"/>
<path transform="translate(611,697)" d="m0 0" fill="#FEFEFE"/>
<path transform="translate(582,625)" d="m0 0 1 2-2-1z" fill="#FEFEFE"/>
<path transform="translate(1049,580)" d="m0 0" fill="#FEFEFE"/>
<path transform="translate(1050,577)" d="m0 0" fill="#FEFEFE"/>
<path transform="translate(745,526)" d="m0 0 3 1z" fill="#FEFEFE"/>
<path transform="translate(1629,648)" d="m0 0" fill="#FEFEFE"/>
<path transform="translate(1039,610)" d="m0 0" fill="#FEFEFE"/>
<path transform="translate(1048,583)" d="m0 0" fill="#FEFEFE"/>
<path transform="translate(821,492)" d="m0 0" fill="#FEFEFE"/>
<path transform="translate(803,432)" d="m0 0" fill="#FEFEFE"/>
<path transform="translate(784,409)" d="m0 0 2 1z" fill="#FEFEFE"/>
<path transform="translate(782,408)" d="m0 0 2 1z" fill="#FEFEFE"/>
<path transform="translate(770,405)" d="m0 0 2 1z" fill="#FEFEFE"/>
<path transform="translate(612,700)" d="m0 0" fill="#FEFEFE"/>
<path transform="translate(612,694)" d="m0 0" fill="#FEFEFE"/>
<path transform="translate(549,649)" d="m0 0" fill="#FEFEFE"/>
<path transform="translate(550,648)" d="m0 0" fill="#FEFEFE"/>
<path transform="translate(946,638)" d="m0 0" fill="#FEFEFE"/>
<path transform="translate(945,637)" d="m0 0" fill="#FEFEFE"/>
<path transform="translate(539,619)" d="m0 0" fill="#FEFEFE"/>
<path transform="translate(1040,607)" d="m0 0" fill="#FEFEFE"/>
<path transform="translate(1041,604)" d="m0 0" fill="#FEFEFE"/>
<path transform="translate(945,603)" d="m0 0" fill="#FEFEFE"/>
<path transform="translate(900,603)" d="m0 0" fill="#FEFEFE"/>
<path transform="translate(560,601)" d="m0 0" fill="#FEFEFE"/>
<path transform="translate(564,598)" d="m0 0" fill="#FEFEFE"/>
<path transform="translate(565,597)" d="m0 0" fill="#FEFEFE"/>
<path transform="translate(898,575)" d="m0 0" fill="#FEFEFE"/>
<path transform="translate(899,574)" d="m0 0" fill="#FEFEFE"/>
<path transform="translate(900,573)" d="m0 0" fill="#FEFEFE"/>
<path transform="translate(901,571)" d="m0 0" fill="#FEFEFE"/>
<path transform="translate(554,570)" d="m0 0" fill="#FEFEFE"/>
<path transform="translate(558,567)" d="m0 0" fill="#FEFEFE"/>
<path transform="translate(559,566)" d="m0 0" fill="#FEFEFE"/>
<path transform="translate(561,565)" d="m0 0" fill="#FEFEFE"/>
<path transform="translate(907,564)" d="m0 0" fill="#FEFEFE"/>
<path transform="translate(908,563)" d="m0 0" fill="#FEFEFE"/>
<path transform="translate(910,560)" d="m0 0" fill="#FEFEFE"/>
<path transform="translate(786,560)" d="m0 0" fill="#FEFEFE"/>
<path transform="translate(911,559)" d="m0 0" fill="#FEFEFE"/>
<path transform="translate(912,558)" d="m0 0" fill="#FEFEFE"/>
<path transform="translate(913,557)" d="m0 0" fill="#FEFEFE"/>
<path transform="translate(914,556)" d="m0 0" fill="#FEFEFE"/>
<path transform="translate(1189,536)" d="m0 0" fill="#FEFEFE"/>
<path transform="translate(1134,511)" d="m0 0" fill="#FEFEFE"/>
<path transform="translate(988,505)" d="m0 0" fill="#FEFEFE"/>
<path transform="translate(939,502)" d="m0 0" fill="#FEFEFE"/>
<path transform="translate(938,501)" d="m0 0" fill="#FEFEFE"/>
<path transform="translate(792,490)" d="m0 0" fill="#FEFEFE"/>
<path transform="translate(819,489)" d="m0 0" fill="#FEFEFE"/>
<path transform="translate(793,489)" d="m0 0" fill="#FEFEFE"/>
<path transform="translate(797,488)" d="m0 0" fill="#FEFEFE"/>
<path transform="translate(794,488)" d="m0 0" fill="#FEFEFE"/>
<path transform="translate(796,418)" d="m0 0" fill="#FEFEFE"/>
</svg>
